<svg xmlns="http://www.w3.org/2000/svg" viewBox="0 0 720 1280" width="720" height="1280" role="img" aria-label="Poen nedelje" fill="none">
  <title>Poen nedelje</title>
  <defs>
    <linearGradient id="v624214acc" x1="0" y1="0" x2="1" y2="1">
      <stop offset="0" stop-color="#cffbf6"/><stop offset="1" stop-color="#5dd3f5"/>
    </linearGradient>
    <linearGradient id="v624214panel" x1="0" y1="0" x2="1" y2="1">
      <stop offset="0" stop-color="#241a44"/><stop offset="1" stop-color="#160f30"/>
    </linearGradient>
    <linearGradient id="v624214deep" x1="0" y1="0" x2="1" y2="1">
      <stop offset="0" stop-color="#4f4698"/><stop offset="1" stop-color="#241a44"/>
    </linearGradient>
    <linearGradient id="v624214fade" x1="0" y1="0" x2="0" y2="1">
      <stop offset="0" stop-color="#0d0820" stop-opacity="0"/><stop offset="1" stop-color="#0d0820" stop-opacity=".85"/>
    </linearGradient>
    <filter id="v624214blur" x="-50%" y="-50%" width="200%" height="200%">
      <feGaussianBlur stdDeviation="70"/>
    </filter>
  </defs>
  <rect width="720" height="1280" fill="#120c28"/>
  <g filter="url(#v624214blur)" opacity=".95">
    <circle cx="543" cy="318" r="300" fill="#cffbf6" opacity=".5"/>
    <circle cx="360" cy="1060" r="260" fill="#5dd3f5" opacity=".22"/>
    <circle cx="200" cy="300" r="220" fill="#4f4698" opacity=".6"/>
  </g>
  <!-- subjekat kadra -->
  <circle cx="300" cy="470" r="150" fill="#5dd3f5" opacity=".85"/>
  <path d="M60 860l210-190 150 116 112-92 188 166v40H60z" fill="#cffbf6" opacity=".5"/>

  <!-- play -->
  <circle cx="360" cy="640" r="82" fill="#160f30" fill-opacity=".45" stroke="#ffffff" stroke-opacity=".3" stroke-width="2"/>
  <path d="M336 602l64 38-64 38z" fill="#ffffff"/>

  <!-- gornji red: nalog + trajanje -->
  <circle cx="72" cy="96" r="26" fill="url(#v624214acc)"/>
  <rect x="112" y="84" width="160" height="14" rx="7" fill="#ffffff" fill-opacity=".28"/>
  <rect x="112" y="106" width="96" height="10" rx="5" fill="#ffffff" fill-opacity=".14"/>
  <rect x="576" y="80" width="88" height="32" rx="16" fill="#160f30" fill-opacity=".55"/>
  <rect x="596" y="91" width="48" height="10" rx="5" fill="#ffffff" fill-opacity=".4"/>

  <!-- bočne akcije: srce, komentar, deljenje -->
  <path d="M660 946c-16-12-30-24-30-38a18 18 0 0 1 30-13 18 18 0 0 1 30 13c0 14-14 26-30 38z" fill="#5dd3f5" opacity=".9"/>
  <circle cx="660" cy="1000" r="24" fill="none" stroke="#ffffff" stroke-opacity=".5" stroke-width="5"/>
  <path d="M636 1084h48l-14 44-34-14z" fill="#ffffff" fill-opacity=".5"/>

  <!-- zatamnjenje + opis -->
  <rect x="0" y="880" width="720" height="400" fill="url(#v624214fade)"/>
  <rect x="60" y="1052" width="420" height="20" rx="10" fill="#ffffff" fill-opacity=".28"/>
  <rect x="60" y="1088" width="520" height="16" rx="8" fill="#ffffff" fill-opacity=".16"/>
  <rect x="60" y="1120" width="300" height="16" rx="8" fill="#cffbf6" fill-opacity=".55"/>
  <rect x="60" y="1176" width="180" height="44" rx="22" fill="#5dd3f5"/>
</svg>
